<svg width="553" height="549" viewBox="0 0 553 549" fill="none" xmlns="http://www.w3.org/2000/svg">
<path d="M122.69 238.943C122.69 225.248 111.545 214.107 97.8536 214.107C84.1586 214.107 73.0176 225.252 73.0176 238.943C73.0176 252.638 84.1626 263.779 97.8536 263.779C111.549 263.779 122.69 252.634 122.69 238.943ZM97.8536 246.978C93.42 246.978 89.8184 243.373 89.8184 238.943C89.8184 234.51 93.4239 230.908 97.8536 230.908C102.287 230.908 105.889 234.514 105.889 238.943C105.893 243.377 102.287 246.978 97.8536 246.978ZM353.274 51.6484L346.274 47.0039L364.551 19.4489C366.652 16.2809 369.941 14.0387 373.586 13.3005C377.047 12.5935 380.562 13.2692 383.457 15.1911L416.473 37.0931C415.496 39.8431 414.649 42.6478 414 45.5345C412.86 50.64 412.207 55.9295 412.207 61.3745C412.207 74.3155 415.653 86.4525 421.613 96.9835L417.606 94.3233C417.602 94.3194 417.598 94.3155 417.594 94.3116C417.59 94.3077 417.582 94.3077 417.578 94.3077L353.274 51.6484ZM423.407 61.375C423.407 27.48 450.887 0 484.786 0C518.684 0 546.165 27.48 546.165 61.375C546.165 95.277 518.685 122.758 484.786 122.758C450.888 122.758 423.407 95.278 423.407 61.375V61.375ZM535.687 141.367H444.027C440.265 141.367 436.499 141.668 432.824 142.465C424.234 144.332 416.176 148.07 409.449 153.617C408.581 154.332 407.683 155.039 406.8 155.746L432.202 117.453L425.202 112.808L416.065 106.746L365.53 182.922C358.812 186.359 352.508 189.011 347.008 190.594L406.734 100.555L390.805 89.9885L322.688 192.689C313.473 195.36 306.149 203.115 304.715 213.361C304.414 215.525 304.507 217.626 304.781 219.685L295.394 233.833C294.316 235.458 292.539 236.337 290.722 236.337C289.66 236.337 288.586 236.036 287.633 235.403C285.054 233.692 284.351 230.216 286.062 227.641L381.476 83.8013L365.546 73.2353L270.136 217.075C269.054 218.7 267.281 219.579 265.464 219.579C264.402 219.579 263.328 219.278 262.375 218.646C259.796 216.935 259.093 213.458 260.804 210.884L356.218 67.0439L340.081 56.3369L283.604 141.482H248.616V138.443C248.616 133.802 244.858 130.044 240.218 130.044C235.577 130.044 231.819 133.802 231.819 138.443V141.482H191.155V138.443C191.155 133.802 187.398 130.044 182.757 130.044C178.116 130.044 174.359 133.802 174.359 138.443V141.482H133.691V138.443C133.691 133.802 129.933 130.044 125.292 130.044C120.652 130.044 116.894 133.802 116.894 138.443V141.482H76.2298V138.443C76.2298 133.802 72.472 130.044 67.8314 130.044C63.1908 130.044 59.433 133.802 59.433 138.443V141.482H22.398C10.027 141.482 0 151.509 0 163.88V397.46C0 409.831 10.027 419.858 22.398 419.858L343.108 419.862C355.479 419.862 365.506 409.835 365.506 397.464V237.424C384.041 231.377 402.244 220.904 417.084 210.803L417.088 519.423C417.088 534.052 427.787 547.118 442.35 548.497C459.045 550.079 473.088 536.993 473.088 520.626V356.846C473.088 353.752 475.596 351.244 478.689 351.244H490.889C493.982 351.244 496.49 353.752 496.49 356.846L496.486 519.426C496.486 534.055 507.185 547.121 521.748 548.5C538.443 550.082 552.486 536.996 552.486 520.629V158.159C552.486 148.882 544.967 141.362 535.689 141.362L535.687 141.367ZM326.547 241.687L320.644 250.585C319.566 252.21 317.789 253.089 315.972 253.089C314.91 253.089 313.836 252.789 312.883 252.156C310.308 250.445 309.601 246.968 311.312 244.394L316.023 237.292C319.144 239.421 322.703 240.941 326.546 241.687L326.547 241.687ZM306.875 274.64L258.195 306.402L233.664 290.129L243.992 232.926L306.875 274.64ZM123.045 330.699L150.818 285.172L160.814 301.563C162.341 304.063 165.056 305.586 167.986 305.586C170.915 305.586 173.634 304.059 175.157 301.563L199.915 260.973L216.845 288.723L209.263 330.7L123.045 330.699ZM348.705 397.461C348.705 400.555 346.197 403.063 343.103 403.063H22.393C19.2992 403.063 16.7914 400.555 16.7914 397.461V163.881C16.7914 160.787 19.2992 158.279 22.393 158.279H59.42V165.178C59.42 169.818 63.1778 173.576 67.8184 173.576C72.459 173.576 76.2168 169.814 76.2168 165.178V158.279H116.885V165.178C116.885 169.818 120.643 173.576 125.283 173.576C129.924 173.576 133.682 169.814 133.682 165.178V158.279H174.346V165.178C174.346 169.818 178.103 173.576 182.744 173.576C187.385 173.576 191.142 169.814 191.142 165.178V158.279H231.806V165.178C231.806 169.818 235.564 173.576 240.205 173.576C244.845 173.576 248.603 169.814 248.603 165.178V158.279H272.447L229.369 223.228C228.736 224.182 228.307 225.252 228.104 226.377L221.338 263.826L207.084 240.463C205.557 237.963 202.842 236.439 199.912 236.439C196.982 236.439 194.264 237.967 192.74 240.463L167.982 281.057L157.986 264.666C156.459 262.166 153.744 260.642 150.814 260.642C147.884 260.642 145.166 262.17 143.642 264.666L100.904 334.725C99.3223 337.319 99.2637 340.565 100.752 343.213C102.24 345.862 105.041 347.502 108.076 347.502H221.756C221.807 347.502 221.854 347.526 221.905 347.526C221.955 347.526 222.002 347.506 222.049 347.502H257.416C260.455 347.502 263.256 345.862 264.74 343.213C266.229 340.565 266.166 337.319 264.588 334.725L259.158 325.826L319.084 286.728C320.041 286.103 320.862 285.291 321.494 284.334L348.697 243.322L348.705 397.461Z" fill="black"/>
</svg>
