<svg width="556" height="497" viewBox="0 0 556 497" fill="none" xmlns="http://www.w3.org/2000/svg">
<path d="M52.0738 289.337C58.2691 285.794 60.4253 277.899 56.8862 271.696L53.6402 266.095L97.3202 258.032L105.945 273.094V273.098C114.484 287.77 129.383 297.61 146.226 299.707C163.069 301.804 179.929 295.914 191.804 283.781C203.675 271.648 209.202 254.668 206.745 237.875L301.386 220.461L307.996 231.996L307.992 231.992C309.554 235.219 312.386 237.652 315.812 238.711C319.238 239.77 322.949 239.359 326.058 237.578C329.171 235.797 331.402 232.805 332.226 229.313C333.046 225.824 332.382 222.152 330.394 219.168L208.594 5.75756C204.817 0.101365 197.309 -1.66823 191.406 1.71067C185.503 5.08957 183.226 12.4607 186.191 18.5817L191.793 28.1559L26.7027 218.556L24.5738 214.861H24.5778C23.0114 211.638 20.1794 209.204 16.7536 208.146C13.3317 207.087 9.62075 207.497 6.50755 209.279C3.39815 211.06 1.16375 214.052 0.343454 217.54C-0.476856 221.032 0.187205 224.704 2.17545 227.685L34.4334 284.525C37.9764 290.724 45.8715 292.881 52.0745 289.342L52.0738 289.337ZM181.484 242.466C182.542 251.244 179.472 260.017 173.175 266.224C166.878 272.431 158.058 275.369 149.296 274.181C140.534 272.998 132.816 267.818 128.398 260.161L124.254 253.22L181.484 242.466ZM297.854 96.4163C295.975 93.1272 295.479 89.2249 296.479 85.5683C297.475 81.9121 299.885 78.8066 303.174 76.9277L345.623 52.6817V52.6778C348.916 50.5567 352.936 49.877 356.744 50.8067C360.549 51.7324 363.81 54.1856 365.756 57.5879C367.701 60.9863 368.166 65.0371 367.037 68.7909C365.908 72.5448 363.291 75.6659 359.791 77.4315L317.287 102.013C313.967 103.853 310.052 104.299 306.408 103.248C302.763 102.197 299.685 99.7401 297.853 96.4159L297.854 96.4163ZM274.389 67.2403H274.393C268.916 62.2286 268.252 53.8343 272.877 48.0293L304.123 8.83027H304.127C306.42 5.79117 309.846 3.80296 313.623 3.32636C317.4 2.84589 321.213 3.9162 324.189 6.29116C327.17 8.66226 329.06 12.1428 329.439 15.9318C329.814 19.7209 328.642 23.5021 326.189 26.4158L294.943 65.6148C292.506 68.6578 288.92 70.564 285.029 70.8804H283.966C280.447 70.9311 277.033 69.6773 274.392 67.3492L274.389 67.2403ZM311.241 131.525C310.46 127.717 311.284 123.756 313.522 120.576C315.756 117.397 319.206 115.279 323.053 114.729L372.502 107.615C380.237 106.518 387.393 111.896 388.49 119.627C389.588 127.358 384.209 134.518 376.478 135.615L326.861 142.67H324.9H324.904C318.31 142.588 312.646 137.971 311.24 131.525L311.241 131.525ZM143.241 496.025C138.811 496.135 134.526 494.443 131.362 491.342C128.198 488.24 126.424 483.994 126.44 479.565V422.276C126.44 417.924 128.166 413.752 131.245 410.674C134.323 407.595 138.495 405.869 142.847 405.869H187.312C191.663 405.869 195.835 407.596 198.914 410.674C201.992 413.752 203.718 417.924 203.718 422.276V479.565C203.718 483.916 201.992 488.088 198.914 491.167C195.835 494.245 191.664 495.971 187.312 495.971L143.241 496.025ZM253.391 496.025C249.035 496.025 244.863 494.299 241.786 491.221C238.712 488.142 236.981 483.971 236.981 479.619V403.068C236.981 398.716 238.712 394.54 241.786 391.466C244.864 388.387 249.036 386.657 253.391 386.657H297.856H297.852C302.203 386.657 306.379 388.387 309.454 391.466C312.532 394.54 314.262 398.716 314.262 403.068V479.564C314.262 483.915 312.532 488.087 309.454 491.166C306.38 494.244 302.204 495.97 297.852 495.97L253.391 496.025ZM424.191 359.615V479.565C424.191 483.917 422.464 488.089 419.386 491.167C416.308 494.245 412.136 495.972 407.784 495.972H363.264C358.912 495.972 354.737 494.245 351.662 491.167C348.584 488.089 346.853 483.917 346.853 479.565V359.615C346.853 355.264 348.584 351.092 351.662 348.013C354.736 344.935 358.912 343.209 363.264 343.209H407.729C412.088 343.193 416.276 344.916 419.366 347.994C422.456 351.072 424.19 355.252 424.19 359.615L424.191 359.615ZM534.341 278.189V479.229C534.345 483.616 532.626 487.831 529.56 490.971C526.493 494.112 522.321 495.924 517.935 496.026H473.638C469.251 495.924 465.079 494.112 462.013 490.971C458.946 487.831 457.227 483.616 457.231 479.229V278.189C457.227 273.803 458.946 269.588 462.013 266.447C465.079 263.311 469.251 261.494 473.638 261.393H517.876C522.274 261.478 526.461 263.287 529.54 266.428C532.618 269.568 534.34 273.795 534.34 278.19L534.341 278.189ZM554.669 171.789C555.567 176.133 554.708 180.653 552.286 184.367C549.864 188.078 546.071 190.684 541.735 191.613C537.383 192.543 532.84 191.711 529.102 189.297C525.364 186.883 522.739 183.082 521.797 178.735L514.965 146.813C484.59 196.211 445.367 239.59 399.265 274.773C360.156 304.281 316.421 327.105 269.845 342.308C227.204 356.581 182.595 364.12 137.635 364.652C130.077 364.652 125.596 364.371 125.147 364.316C119.147 363.886 113.827 360.289 111.202 354.875C108.573 349.461 109.03 343.059 112.405 338.074C115.776 333.089 121.554 330.288 127.557 330.718H136.909C178.807 330.12 220.366 323.054 260.109 309.773C354.863 278.414 430.909 217.484 486.239 128.563L455.212 135.618C449.493 136.528 443.704 134.43 439.9 130.059C436.095 125.688 434.81 119.668 436.502 114.125C438.193 108.582 442.619 104.305 448.213 102.801L519.502 87.5712C523.853 86.6376 528.396 87.4736 532.135 89.8876C535.873 92.3017 538.498 96.1024 539.439 100.45L554.669 171.789Z" fill="black"/>
</svg>
